<svg width="27" height="27" viewBox="0 0 27 27" fill="none" xmlns="http://www.w3.org/2000/svg">
<path d="M3 7.00006H5L5.27273 10.0001M5.27273 10.0001L5.8224 16.0465C5.92104 17.1315 6.86996 17.9379 7.95668 17.8603L18.3908 17.115C19.3299 17.0479 20.095 16.335 20.2282 15.4029L21 10.0001H5.27273Z" stroke="#FDAFAF" stroke-width="2" stroke-linecap="round" stroke-linejoin="round"/>
<path d="M9 23.0001C9.55228 23.0001 10 22.5523 10 22.0001C10 21.4478 9.55228 21.0001 9 21.0001C8.44772 21.0001 8 21.4478 8 22.0001C8 22.5523 8.44772 23.0001 9 23.0001Z" stroke="#FDAFAF" stroke-width="2" stroke-linecap="round" stroke-linejoin="round"/>
<path d="M17 23.0001C17.5523 23.0001 18 22.5523 18 22.0001C18 21.4478 17.5523 21.0001 17 21.0001C16.4477 21.0001 16 21.4478 16 22.0001C16 22.5523 16.4477 23.0001 17 23.0001Z" stroke="#FDAFAF" stroke-width="2" stroke-linecap="round" stroke-linejoin="round"/>
</svg>
